<mxfile host="app.diagrams.net" modified="2023-11-07T17:57:05.857Z" agent="Mozilla/5.0 (Windows NT 10.0; Win64; x64) AppleWebKit/537.36 (KHTML, like Gecko) Chrome/117.0.0.0 Safari/537.36" etag="C6GSykcq71r7HTx6YfZq" version="21.3.2" type="device">
  <diagram name="Strona-1" id="DMnkSC4yl9CdHXHFx3ds">
    <mxGraphModel dx="1050" dy="534" grid="1" gridSize="10" guides="1" tooltips="1" connect="1" arrows="1" fold="1" page="1" pageScale="1" pageWidth="1169" pageHeight="1654" math="0" shadow="0">
      <root>
        <mxCell id="0" />
        <mxCell id="1" parent="0" />
        <mxCell id="U0c7bnJLxAtCSdPnOUKt-1" value="Intergrajs Graficzny Użytkownika" style="swimlane;whiteSpace=wrap;html=1;" vertex="1" parent="1">
          <mxGeometry x="70" y="40" width="960" height="480" as="geometry" />
        </mxCell>
        <mxCell id="U0c7bnJLxAtCSdPnOUKt-2" value="127.0.0.1:5000" style="rounded=0;whiteSpace=wrap;html=1;fillColor=none;align=left;" vertex="1" parent="U0c7bnJLxAtCSdPnOUKt-1">
          <mxGeometry x="20" y="40" width="920" height="30" as="geometry" />
        </mxCell>
        <mxCell id="U0c7bnJLxAtCSdPnOUKt-5" value="Wybierz Akcję" style="rounded=0;whiteSpace=wrap;html=1;fillColor=none;" vertex="1" parent="U0c7bnJLxAtCSdPnOUKt-1">
          <mxGeometry x="38" y="90" width="210" height="30" as="geometry" />
        </mxCell>
        <mxCell id="U0c7bnJLxAtCSdPnOUKt-7" value="Włącz powiadomienia" style="rounded=0;whiteSpace=wrap;html=1;fillColor=none;dashed=1;dashPattern=8 8;" vertex="1" parent="U0c7bnJLxAtCSdPnOUKt-1">
          <mxGeometry x="38" y="173" width="210" height="30" as="geometry" />
        </mxCell>
        <mxCell id="U0c7bnJLxAtCSdPnOUKt-6" value="Wybierz przedział czasowy" style="rounded=0;whiteSpace=wrap;html=1;fillColor=none;" vertex="1" parent="U0c7bnJLxAtCSdPnOUKt-1">
          <mxGeometry x="38" y="130" width="210" height="30" as="geometry" />
        </mxCell>
        <mxCell id="U0c7bnJLxAtCSdPnOUKt-9" value="Aktualizacja danych" style="rounded=0;whiteSpace=wrap;html=1;fillColor=none;dashed=1;dashPattern=8 8;" vertex="1" parent="U0c7bnJLxAtCSdPnOUKt-1">
          <mxGeometry x="38" y="216" width="120" height="30" as="geometry" />
        </mxCell>
        <mxCell id="U0c7bnJLxAtCSdPnOUKt-10" value="Suwak czasu" style="dashed=0;verticalLabelPosition=bottom;verticalAlign=top;align=center;shape=mxgraph.gmdl.slider2;barPos=50;strokeColor=#3F51B5;opacity=100;strokeWidth=2;fillColor=#3F51B5;handleSize=10;shadow=0;html=1;" vertex="1" parent="U0c7bnJLxAtCSdPnOUKt-1">
          <mxGeometry x="300" y="93" width="621" height="10" as="geometry" />
        </mxCell>
        <mxCell id="U0c7bnJLxAtCSdPnOUKt-4" value="Wykres 1" style="rounded=0;whiteSpace=wrap;html=1;fillColor=none;" vertex="1" parent="U0c7bnJLxAtCSdPnOUKt-1">
          <mxGeometry x="300" y="130" width="620" height="120" as="geometry" />
        </mxCell>
        <mxCell id="U0c7bnJLxAtCSdPnOUKt-3" value="Wykres 2" style="rounded=0;whiteSpace=wrap;html=1;fillColor=none;" vertex="1" parent="U0c7bnJLxAtCSdPnOUKt-1">
          <mxGeometry x="330" y="280" width="160" height="160" as="geometry" />
        </mxCell>
        <mxCell id="U0c7bnJLxAtCSdPnOUKt-12" value="Wykres 3" style="rounded=0;whiteSpace=wrap;html=1;fillColor=none;" vertex="1" parent="U0c7bnJLxAtCSdPnOUKt-1">
          <mxGeometry x="530" y="280" width="160" height="160" as="geometry" />
        </mxCell>
        <mxCell id="U0c7bnJLxAtCSdPnOUKt-11" value="Wykres 4" style="rounded=0;whiteSpace=wrap;html=1;fillColor=none;" vertex="1" parent="U0c7bnJLxAtCSdPnOUKt-1">
          <mxGeometry x="730" y="280" width="160" height="160" as="geometry" />
        </mxCell>
        <mxCell id="U0c7bnJLxAtCSdPnOUKt-13" value="NEW" style="dashed=0;html=1;rounded=1;strokeColor=#6554C0;fontSize=12;align=center;fontStyle=1;strokeWidth=2;fontColor=#6554C0" vertex="1" parent="U0c7bnJLxAtCSdPnOUKt-1">
          <mxGeometry x="50" y="300" width="120" height="20" as="geometry" />
        </mxCell>
        <mxCell id="U0c7bnJLxAtCSdPnOUKt-14" value="NEW" style="dashed=0;html=1;rounded=1;strokeColor=#6554C0;fontSize=12;align=center;fontStyle=1;strokeWidth=2;fontColor=#6554C0" vertex="1" parent="U0c7bnJLxAtCSdPnOUKt-1">
          <mxGeometry x="50" y="340" width="120" height="20" as="geometry" />
        </mxCell>
        <mxCell id="U0c7bnJLxAtCSdPnOUKt-15" value="NEW" style="dashed=0;html=1;rounded=1;strokeColor=#6554C0;fontSize=12;align=center;fontStyle=1;strokeWidth=2;fontColor=#6554C0" vertex="1" parent="U0c7bnJLxAtCSdPnOUKt-1">
          <mxGeometry x="50" y="380" width="120" height="20" as="geometry" />
        </mxCell>
        <mxCell id="U0c7bnJLxAtCSdPnOUKt-16" value="NEW" style="dashed=0;html=1;rounded=1;strokeColor=#6554C0;fontSize=12;align=center;fontStyle=1;strokeWidth=2;fontColor=#6554C0" vertex="1" parent="U0c7bnJLxAtCSdPnOUKt-1">
          <mxGeometry x="50" y="420" width="120" height="20" as="geometry" />
        </mxCell>
        <mxCell id="U0c7bnJLxAtCSdPnOUKt-17" value="Wiadomości" style="text;html=1;align=center;verticalAlign=middle;resizable=0;points=[];autosize=1;strokeColor=none;fillColor=none;" vertex="1" parent="U0c7bnJLxAtCSdPnOUKt-1">
          <mxGeometry x="65" y="270" width="90" height="30" as="geometry" />
        </mxCell>
        <mxCell id="U0c7bnJLxAtCSdPnOUKt-18" value="" style="rounded=1;whiteSpace=wrap;html=1;fillColor=none;" vertex="1" parent="U0c7bnJLxAtCSdPnOUKt-1">
          <mxGeometry x="210" y="300" width="30" height="30" as="geometry" />
        </mxCell>
        <mxCell id="U0c7bnJLxAtCSdPnOUKt-19" value="" style="rounded=1;whiteSpace=wrap;html=1;fillColor=none;" vertex="1" parent="U0c7bnJLxAtCSdPnOUKt-1">
          <mxGeometry x="260" y="300" width="30" height="30" as="geometry" />
        </mxCell>
        <mxCell id="U0c7bnJLxAtCSdPnOUKt-20" value="" style="rounded=1;whiteSpace=wrap;html=1;fillColor=none;" vertex="1" parent="U0c7bnJLxAtCSdPnOUKt-1">
          <mxGeometry x="210" y="340" width="30" height="30" as="geometry" />
        </mxCell>
        <mxCell id="U0c7bnJLxAtCSdPnOUKt-21" value="" style="rounded=1;whiteSpace=wrap;html=1;fillColor=none;" vertex="1" parent="U0c7bnJLxAtCSdPnOUKt-1">
          <mxGeometry x="260" y="340" width="30" height="30" as="geometry" />
        </mxCell>
        <mxCell id="U0c7bnJLxAtCSdPnOUKt-22" value="" style="rounded=1;whiteSpace=wrap;html=1;fillColor=none;" vertex="1" parent="U0c7bnJLxAtCSdPnOUKt-1">
          <mxGeometry x="210" y="380" width="30" height="30" as="geometry" />
        </mxCell>
        <mxCell id="U0c7bnJLxAtCSdPnOUKt-23" value="" style="rounded=1;whiteSpace=wrap;html=1;fillColor=none;" vertex="1" parent="U0c7bnJLxAtCSdPnOUKt-1">
          <mxGeometry x="260" y="380" width="30" height="30" as="geometry" />
        </mxCell>
        <mxCell id="U0c7bnJLxAtCSdPnOUKt-24" value="" style="rounded=1;whiteSpace=wrap;html=1;fillColor=none;" vertex="1" parent="U0c7bnJLxAtCSdPnOUKt-1">
          <mxGeometry x="210" y="420" width="30" height="30" as="geometry" />
        </mxCell>
        <mxCell id="U0c7bnJLxAtCSdPnOUKt-25" value="" style="rounded=1;whiteSpace=wrap;html=1;fillColor=none;" vertex="1" parent="U0c7bnJLxAtCSdPnOUKt-1">
          <mxGeometry x="260" y="420" width="30" height="30" as="geometry" />
        </mxCell>
        <mxCell id="U0c7bnJLxAtCSdPnOUKt-26" value="KPI" style="text;html=1;align=center;verticalAlign=middle;resizable=0;points=[];autosize=1;strokeColor=none;fillColor=none;" vertex="1" parent="1">
          <mxGeometry x="300" y="308" width="40" height="30" as="geometry" />
        </mxCell>
      </root>
    </mxGraphModel>
  </diagram>
</mxfile>
